<svg width="1248" height="751" viewBox="0 0 1248 751" fill="none" xmlns="http://www.w3.org/2000/svg">
<path d="M1325.09 421.141L1321.15 421.107L1308.82 420.943L1274.87 377.972L1264.37 378.862L1232.44 357.856L1215.37 358.647L1171.68 315.939L1178.97 297.635L1156.72 270.592L1135.27 267.228L1133.73 259.413L1123.03 255.917L1104.86 217.497L1092.08 181.615L1088.14 159.585L1065.11 147.68L1060.72 142.57L1048.26 127.993L1006.18 176.538L977.185 191.973L947.056 235.374L964.628 269.475L1021.6 315.348L1026.4 326.66L1041.51 335.464L1054.76 364.057L1078.48 377.282L1108.71 411.745L1062.99 386.846L1065.17 394.464L1071.83 410.954L1056.56 398.356L1041.29 394.464L1064.38 439.942L1026.56 402.18L1008.7 372.598L996.871 363.034L996.303 373.059L941.316 310.103L923.522 305.518L903.646 289.622L884.654 255.62L863.989 232.601L852.254 233.656L825.597 213.076L838.941 239.922L814.112 221.948L818.559 237.285L782.501 217.135L784.583 201.239L778.81 187.09L774.773 188.706L780.451 169.116L773.984 175.812L772.691 161.762L763.669 158.497L770.893 156.188L770.104 128.782L739.913 106.886L737.485 124.726L728.335 137.061L731.49 109.062L737.895 97.6853L731.144 92.3432L724.266 100.687L706.472 73.9402L720.069 33.1119L714.643 36.0798L715.368 14.6438L707.986 21.6363L696.535 45.2487L661.769 93.5303L634.071 113.844L616.058 154.376V154.41L613.441 160.314L584.953 209.124L543.373 244.048L524.571 270.563L554.257 297.573L601.8 274.851C613.316 283.986 624.799 293.121 636.315 302.256L755.345 393.41L814.402 426.324L848.033 425.532L964.257 519.456L1003.03 550.784L1013.91 546.2L1022.37 554.281L1046.82 563.515L1069.47 577.102L1110.36 540.694L1124.74 508.077L1160.21 562.723L1170.71 557.613L1181.22 572.025L1205.51 551.742L1217.84 529.218L1226.36 530.142L1234.31 520.479L1245.38 524.47L1267.66 559.328L1291.47 574.863L1303.05 591.813L1311.66 573.608L1318.89 580.501L1332.07 581.457L1339.58 591.912L1344.1 592.737L1344.88 586.57L1351.67 597.288L1356.43 595.442L1486 544.786L1325.09 421.141ZM1068.8 279.3L1075.17 260.767L1081.86 251.038L1090.73 252.951L1068.8 279.3ZM725.621 198.073L716.566 180.727L707.227 170.537L703 177.826L704.955 196.657L688.424 181.586L677.444 206.815L676.435 197.021L685.396 176.277L685.523 163.977L671.39 142.738L673.788 124.007L687.48 96.5681L706.567 116.554L707.324 128.493L717.041 140.76L719.312 161.964L729.344 179.477L725.621 198.073ZM813.419 299.747L789.223 286.423L777.485 277.98L768.336 279.959L753.162 266.01L742.909 262.019L741.962 255.49L737.325 248.861L750.607 221.818L750.48 199.127L763.131 185.309L756.506 203.183L761.333 211.561L771.175 237.219L777.737 239.958L799.222 264.825L800.703 273.861L818.433 293.155L842.126 318.285L813.419 299.747ZM1157.32 305.089L1166.85 294.766L1157.32 316.236V305.089ZM1162.78 441.556L1155.87 437.334L1147.89 422.492L1135.15 419.985L1139.44 433.572L1130.98 429.977L1119.53 436.209L1128.46 424.734L1126.69 414.51L1150.64 404.914L1186.63 463.617L1162.78 441.556ZM1241.43 500.423L1225.15 489.473L1240.83 495.443L1218.78 471.763L1249.28 490.265L1269.76 516.483L1241.43 500.423Z" fill="#4F46E5"/>
<path d="M1351.66 597.282L1244.14 639.298L1176.54 650.974L1075.96 675.51L951.379 715.019L829.92 687.217L787.992 708.06L761.208 680.654L595.328 750.01L381.842 641.51L277.071 670.168L236.279 650.479L201.008 661.757L169.332 642.63L121.98 656.909L90.4941 639.595L55.3174 647.444C55.3174 647.444 -0.995285 641.573 0.0133906 640.748C12.2237 635.208 24.5586 629.832 36.9558 624.719L47.5873 600.841L114.153 555.067L152.296 492.076L213.656 416.423L244.069 416.884L263.061 404.614L337.419 317.946L354.991 317.98L432.315 237.94L437.395 370.219L463.201 471.958L516.201 517.337L504.94 431.293L479.102 407.02L445.439 347.362L496.106 392.774L461.056 314.549L489.86 342.746L476.42 308.15L456.86 276.952L470.425 286.417L478.975 281.239L484.875 283.811L494.338 278.04L514.971 265.473L523.488 308.543L535.32 320.12L554.249 297.562L601.793 274.84C601.288 276.027 601.131 324.936 601.131 324.936L660.536 400.821L668.077 446.036L668.172 446.63L656.846 487.557L708.616 525.615L706.755 483.071L693.631 470.507L671.643 427.636L703.476 457.184L672.527 372.494L669.31 348.189L730.481 412.497L759.821 444.289L816.323 487.096L799.697 441.652L829.006 439.41L844.748 443.729L915.856 508.6L897.243 474.566L964.252 519.45L1003.02 550.779L1013.91 546.195L1022.36 554.275L1046.81 563.509L1069.47 577.096L1110.35 540.688L1124.74 508.071L1160.2 562.718L1170.7 557.607L1181.21 572.02L1205.5 551.737L1217.84 529.213L1226.35 530.137L1234.3 520.473L1245.38 524.464L1267.65 559.323L1291.47 574.857L1303.05 591.807L1311.66 573.602L1318.88 580.496L1332.07 581.451L1339.58 591.906L1344.09 592.732L1344.88 586.564L1351.66 597.282Z" fill="#181467"/>
<path d="M781.933 65.8256L772.721 65.068L770.482 56.2948L742.938 25.1301L731.582 21.8655L756 0L755.116 14.5448L772.469 25.4269L773.983 47.1934L776.001 56.1645L781.933 65.8256Z" fill="#4F46E5"/>
<path d="M858.532 169.512L858.468 214.693L810.01 166.281L799.568 140.82L779.316 121.165L767.2 96.3315L787.549 111.436L780.546 92.7363L805.689 112.425L825.438 139.732L858.532 169.512Z" fill="#4F46E5"/>
</svg>
